<?xml version="1.0" encoding="UTF-8" standalone="no"?>
<!DOCTYPE svg PUBLIC "-//W3C//DTD SVG 1.1//EN"
 "http://www.w3.org/Graphics/SVG/1.1/DTD/svg11.dtd">
<!-- Generated by graphviz version 2.47.3 (20210619.1520)
 -->
<!-- Title: dependencies Pages: 1 -->
<svg width="1161pt" height="247pt"
 viewBox="0.00 0.00 1161.00 246.80" xmlns="http://www.w3.org/2000/svg" xmlns:xlink="http://www.w3.org/1999/xlink">
<g id="graph0" class="graph" transform="scale(1 1) rotate(0) translate(4 242.8)">
<title>dependencies</title>
<polygon fill="white" stroke="transparent" points="-4,4 -4,-242.8 1157,-242.8 1157,4 -4,4"/>
<text text-anchor="middle" x="576.5" y="-8.2" font-family="sans-serif" font-size="14.00">dependencies</text>
<g id="clust1" class="cluster">
<title>cluster_ChatBoxModule</title>
<polygon fill="none" stroke="black" stroke-dasharray="1,5" points="8,-32.8 8,-230.8 1145,-230.8 1145,-32.8 8,-32.8"/>
</g>
<g id="clust4" class="cluster">
<title>cluster_ChatBoxModule_imports</title>
<polygon fill="none" stroke="black" points="160,-40.8 160,-92.8 1137,-92.8 1137,-40.8 160,-40.8"/>
</g>
<g id="clust5" class="cluster">
<title>cluster_ChatBoxModule_exports</title>
<polygon fill="none" stroke="black" points="605,-170.8 605,-222.8 745,-222.8 745,-170.8 605,-170.8"/>
</g>
<g id="clust2" class="cluster">
<title>cluster_ChatBoxModule_declarations</title>
<polygon fill="none" stroke="black" points="16,-40.8 16,-92.8 152,-92.8 152,-40.8 16,-40.8"/>
</g>
<!-- ...chatComponents -->
<g id="node1" class="node">
<title>...chatComponents</title>
<polygon fill="#ffffb3" stroke="black" points="144.1,-84.8 23.9,-84.8 23.9,-48.8 144.1,-48.8 144.1,-84.8"/>
<text text-anchor="middle" x="84" y="-62.6" font-family="Times,serif" font-size="14.00">...chatComponents</text>
</g>
<!-- ChatBoxModule -->
<g id="node2" class="node">
<title>ChatBoxModule</title>
<polygon fill="#8dd3c7" stroke="black" points="729.83,-149.8 726.83,-153.8 705.83,-153.8 702.83,-149.8 620.17,-149.8 620.17,-113.8 729.83,-113.8 729.83,-149.8"/>
<text text-anchor="middle" x="675" y="-127.6" font-family="Times,serif" font-size="14.00">ChatBoxModule</text>
</g>
<!-- ...chatComponents&#45;&gt;ChatBoxModule -->
<g id="edge1" class="edge">
<title>...chatComponents&#45;&gt;ChatBoxModule</title>
<path fill="none" stroke="black" d="M84,-85.09C84,-107.01 84,-140.8 84,-140.8 84,-140.8 610.2,-140.8 610.2,-140.8"/>
<polygon fill="black" stroke="black" points="610.2,-144.3 620.2,-140.8 610.2,-137.3 610.2,-144.3"/>
</g>
<!-- ...chatComponents  -->
<g id="node9" class="node">
<title>...chatComponents </title>
<polygon fill="#fb8072" stroke="black" points="737.1,-214.8 612.9,-214.8 612.9,-178.8 737.1,-178.8 737.1,-214.8"/>
<text text-anchor="middle" x="675" y="-192.6" font-family="Times,serif" font-size="14.00">...chatComponents </text>
</g>
<!-- ChatBoxModule&#45;&gt;...chatComponents  -->
<g id="edge8" class="edge">
<title>ChatBoxModule&#45;&gt;...chatComponents </title>
<path fill="none" stroke="black" stroke-dasharray="5,2" d="M675,-149.91C675,-149.91 675,-168.79 675,-168.79"/>
<polygon fill="black" stroke="black" points="671.5,-168.79 675,-178.79 678.5,-168.79 671.5,-168.79"/>
</g>
<!-- CommonModule -->
<g id="node3" class="node">
<title>CommonModule</title>
<polygon fill="#8dd3c7" stroke="black" points="1128.67,-84.8 1125.67,-88.8 1104.67,-88.8 1101.67,-84.8 1017.33,-84.8 1017.33,-48.8 1128.67,-48.8 1128.67,-84.8"/>
<text text-anchor="middle" x="1073" y="-62.6" font-family="Times,serif" font-size="14.00">CommonModule</text>
</g>
<!-- CommonModule&#45;&gt;ChatBoxModule -->
<g id="edge2" class="edge">
<title>CommonModule&#45;&gt;ChatBoxModule</title>
<path fill="none" stroke="black" d="M1073,-85.09C1073,-107.01 1073,-140.8 1073,-140.8 1073,-140.8 739.92,-140.8 739.92,-140.8"/>
<polygon fill="black" stroke="black" points="739.92,-137.3 729.92,-140.8 739.92,-144.3 739.92,-137.3"/>
</g>
<!-- BrowserModule -->
<g id="node4" class="node">
<title>BrowserModule</title>
<polygon fill="#8dd3c7" stroke="black" points="999.47,-84.8 996.47,-88.8 975.47,-88.8 972.47,-84.8 892.53,-84.8 892.53,-48.8 999.47,-48.8 999.47,-84.8"/>
<text text-anchor="middle" x="946" y="-62.6" font-family="Times,serif" font-size="14.00">BrowserModule</text>
</g>
<!-- BrowserModule&#45;&gt;ChatBoxModule -->
<g id="edge3" class="edge">
<title>BrowserModule&#45;&gt;ChatBoxModule</title>
<path fill="none" stroke="black" d="M946,-84.91C946,-104.14 946,-131.8 946,-131.8 946,-131.8 739.84,-131.8 739.84,-131.8"/>
<polygon fill="black" stroke="black" points="739.84,-128.3 729.84,-131.8 739.84,-135.3 739.84,-128.3"/>
</g>
<!-- FormsModule -->
<g id="node5" class="node">
<title>FormsModule</title>
<polygon fill="#8dd3c7" stroke="black" points="874.83,-84.8 871.83,-88.8 850.83,-88.8 847.83,-84.8 779.17,-84.8 779.17,-48.8 874.83,-48.8 874.83,-84.8"/>
<text text-anchor="middle" x="827" y="-62.6" font-family="Times,serif" font-size="14.00">FormsModule</text>
</g>
<!-- FormsModule&#45;&gt;ChatBoxModule -->
<g id="edge4" class="edge">
<title>FormsModule&#45;&gt;ChatBoxModule</title>
<path fill="none" stroke="black" d="M827,-84.83C827,-101.2 827,-122.8 827,-122.8 827,-122.8 739.88,-122.8 739.88,-122.8"/>
<polygon fill="black" stroke="black" points="739.88,-119.3 729.88,-122.8 739.88,-126.3 739.88,-119.3"/>
</g>
<!-- ChatFeatureRoutingModule -->
<g id="node6" class="node">
<title>ChatFeatureRoutingModule</title>
<polygon fill="#8dd3c7" stroke="black" points="761.59,-84.8 758.59,-88.8 737.59,-88.8 734.59,-84.8 588.41,-84.8 588.41,-48.8 761.59,-48.8 761.59,-84.8"/>
<text text-anchor="middle" x="675" y="-62.6" font-family="Times,serif" font-size="14.00">ChatFeatureRoutingModule</text>
</g>
<!-- ChatFeatureRoutingModule&#45;&gt;ChatBoxModule -->
<g id="edge5" class="edge">
<title>ChatFeatureRoutingModule&#45;&gt;ChatBoxModule</title>
<path fill="none" stroke="black" d="M675,-84.91C675,-84.91 675,-103.79 675,-103.79"/>
<polygon fill="black" stroke="black" points="671.5,-103.79 675,-113.79 678.5,-103.79 671.5,-103.79"/>
</g>
<!-- AgmCoreModule.forRoot(args) -->
<g id="node7" class="node">
<title>AgmCoreModule.forRoot(args)</title>
<polygon fill="#8dd3c7" stroke="black" points="570.45,-84.8 567.45,-88.8 546.45,-88.8 543.45,-84.8 375.55,-84.8 375.55,-48.8 570.45,-48.8 570.45,-84.8"/>
<text text-anchor="middle" x="473" y="-62.6" font-family="Times,serif" font-size="14.00">AgmCoreModule.forRoot(args)</text>
</g>
<!-- AgmCoreModule.forRoot(args)&#45;&gt;ChatBoxModule -->
<g id="edge6" class="edge">
<title>AgmCoreModule.forRoot(args)&#45;&gt;ChatBoxModule</title>
<path fill="none" stroke="black" d="M473,-84.83C473,-101.2 473,-122.8 473,-122.8 473,-122.8 610.34,-122.8 610.34,-122.8"/>
<polygon fill="black" stroke="black" points="610.34,-126.3 620.34,-122.8 610.34,-119.3 610.34,-126.3"/>
</g>
<!-- SocketIoModule.forRoot(args) -->
<g id="node8" class="node">
<title>SocketIoModule.forRoot(args)</title>
<polygon fill="#8dd3c7" stroke="black" points="357.5,-84.8 354.5,-88.8 333.5,-88.8 330.5,-84.8 168.5,-84.8 168.5,-48.8 357.5,-48.8 357.5,-84.8"/>
<text text-anchor="middle" x="263" y="-62.6" font-family="Times,serif" font-size="14.00">SocketIoModule.forRoot(args)</text>
</g>
<!-- SocketIoModule.forRoot(args)&#45;&gt;ChatBoxModule -->
<g id="edge7" class="edge">
<title>SocketIoModule.forRoot(args)&#45;&gt;ChatBoxModule</title>
<path fill="none" stroke="black" d="M263,-84.91C263,-104.14 263,-131.8 263,-131.8 263,-131.8 610.29,-131.8 610.29,-131.8"/>
<polygon fill="black" stroke="black" points="610.29,-135.3 620.29,-131.8 610.29,-128.3 610.29,-135.3"/>
</g>
</g>
</svg>
