<?xml version="1.0" encoding="UTF-8" standalone="no"?>
<!DOCTYPE svg PUBLIC "-//W3C//DTD SVG 1.1//EN"
 "http://www.w3.org/Graphics/SVG/1.1/DTD/svg11.dtd">
<!-- Generated by graphviz version 2.47.3 (20210619.1520)
 -->
<!-- Title: dependencies Pages: 1 -->
<svg width="1474pt" height="399pt"
 viewBox="0.00 0.00 1474.00 398.80" xmlns="http://www.w3.org/2000/svg" xmlns:xlink="http://www.w3.org/1999/xlink">
<g id="graph0" class="graph" transform="scale(1 1) rotate(0) translate(4 394.8)">
<title>dependencies</title>
<polygon fill="white" stroke="transparent" points="-4,4 -4,-394.8 1470,-394.8 1470,4 -4,4"/>
<text text-anchor="middle" x="733" y="-8.2" font-family="sans-serif" font-size="14.00">dependencies</text>
<g id="clust1" class="cluster">
<title>cluster_AppModule</title>
<polygon fill="none" stroke="black" stroke-dasharray="1,5" points="696,-184.8 696,-382.8 1114,-382.8 1114,-184.8 696,-184.8"/>
</g>
<g id="clust2" class="cluster">
<title>cluster_AppModule_declarations</title>
<polygon fill="none" stroke="black" points="984,-192.8 984,-244.8 1106,-244.8 1106,-192.8 984,-192.8"/>
</g>
<g id="clust4" class="cluster">
<title>cluster_AppModule_imports</title>
<polygon fill="none" stroke="black" points="704,-192.8 704,-244.8 976,-244.8 976,-192.8 704,-192.8"/>
</g>
<g id="clust6" class="cluster">
<title>cluster_AppModule_bootstrap</title>
<polygon fill="none" stroke="black" points="842,-322.8 842,-374.8 966,-374.8 966,-322.8 842,-322.8"/>
</g>
<g id="clust8" class="cluster">
<title>cluster_AppRoutingModule</title>
<polygon fill="none" stroke="black" stroke-dasharray="1,5" points="1122,-184.8 1122,-252.8 1458,-252.8 1458,-184.8 1122,-184.8"/>
</g>
<g id="clust10" class="cluster">
<title>cluster_AppRoutingModule_imports</title>
<polygon fill="none" stroke="black" points="1256,-192.8 1256,-244.8 1450,-244.8 1450,-192.8 1256,-192.8"/>
</g>
<g id="clust11" class="cluster">
<title>cluster_AppRoutingModule_exports</title>
<polygon fill="none" stroke="black" points="1130,-192.8 1130,-244.8 1248,-244.8 1248,-192.8 1130,-192.8"/>
</g>
<g id="clust14" class="cluster">
<title>cluster_ChatBoxModule</title>
<polygon fill="none" stroke="black" stroke-dasharray="1,5" points="8,-108.8 8,-176.8 1292,-176.8 1292,-108.8 8,-108.8"/>
</g>
<g id="clust15" class="cluster">
<title>cluster_ChatBoxModule_declarations</title>
<polygon fill="none" stroke="black" points="164,-116.8 164,-168.8 300,-168.8 300,-116.8 164,-116.8"/>
</g>
<g id="clust17" class="cluster">
<title>cluster_ChatBoxModule_imports</title>
<polygon fill="none" stroke="black" points="308,-116.8 308,-168.8 1284,-168.8 1284,-116.8 308,-116.8"/>
</g>
<g id="clust18" class="cluster">
<title>cluster_ChatBoxModule_exports</title>
<polygon fill="none" stroke="black" points="16,-116.8 16,-168.8 156,-168.8 156,-116.8 16,-116.8"/>
</g>
<g id="clust21" class="cluster">
<title>cluster_ChatFeatureRoutingModule</title>
<polygon fill="none" stroke="black" stroke-dasharray="1,5" points="1082,-32.8 1082,-100.8 1296,-100.8 1296,-32.8 1082,-32.8"/>
</g>
<g id="clust23" class="cluster">
<title>cluster_ChatFeatureRoutingModule_imports</title>
<polygon fill="none" stroke="black" points="1090,-40.8 1090,-92.8 1288,-92.8 1288,-40.8 1090,-40.8"/>
</g>
<!-- AppComponent -->
<g id="node1" class="node">
<title>AppComponent</title>
<polygon fill="#ffffb3" stroke="black" points="1097.94,-236.8 992.06,-236.8 992.06,-200.8 1097.94,-200.8 1097.94,-236.8"/>
<text text-anchor="middle" x="1045" y="-214.6" font-family="Times,serif" font-size="14.00">AppComponent</text>
</g>
<!-- AppModule -->
<g id="node2" class="node">
<title>AppModule</title>
<polygon fill="#8dd3c7" stroke="black" points="945.66,-301.8 942.66,-305.8 921.66,-305.8 918.66,-301.8 862.34,-301.8 862.34,-265.8 945.66,-265.8 945.66,-301.8"/>
<text text-anchor="middle" x="904" y="-279.6" font-family="Times,serif" font-size="14.00">AppModule</text>
</g>
<!-- AppComponent&#45;&gt;AppModule -->
<g id="edge1" class="edge">
<title>AppComponent&#45;&gt;AppModule</title>
<path fill="none" stroke="black" d="M1045,-236.91C1045,-256.14 1045,-283.8 1045,-283.8 1045,-283.8 955.92,-283.8 955.92,-283.8"/>
<polygon fill="black" stroke="black" points="955.92,-280.3 945.92,-283.8 955.92,-287.3 955.92,-280.3"/>
</g>
<!-- AppComponent  -->
<g id="node5" class="node">
<title>AppComponent </title>
<polygon fill="#80b1d3" stroke="black" points="958.44,-366.8 849.56,-366.8 849.56,-330.8 958.44,-330.8 958.44,-366.8"/>
<text text-anchor="middle" x="904" y="-344.6" font-family="Times,serif" font-size="14.00">AppComponent </text>
</g>
<!-- AppModule&#45;&gt;AppComponent  -->
<g id="edge4" class="edge">
<title>AppModule&#45;&gt;AppComponent </title>
<path fill="none" stroke="black" stroke-dasharray="1,5" d="M904,-301.91C904,-301.91 904,-320.79 904,-320.79"/>
<polygon fill="black" stroke="black" points="900.5,-320.79 904,-330.79 907.5,-320.79 900.5,-320.79"/>
</g>
<!-- AppRoutingModule -->
<g id="node3" class="node">
<title>AppRoutingModule</title>
<polygon fill="#8dd3c7" stroke="black" points="968.27,-236.8 965.27,-240.8 944.27,-240.8 941.27,-236.8 839.73,-236.8 839.73,-200.8 968.27,-200.8 968.27,-236.8"/>
<text text-anchor="middle" x="904" y="-214.6" font-family="Times,serif" font-size="14.00">AppRoutingModule</text>
</g>
<!-- AppRoutingModule&#45;&gt;AppModule -->
<g id="edge2" class="edge">
<title>AppRoutingModule&#45;&gt;AppModule</title>
<path fill="none" stroke="black" d="M904,-236.91C904,-236.91 904,-255.79 904,-255.79"/>
<polygon fill="black" stroke="black" points="900.5,-255.79 904,-265.79 907.5,-255.79 900.5,-255.79"/>
</g>
<!-- RouterModule  -->
<g id="node7" class="node">
<title>RouterModule </title>
<polygon fill="#fb8072" stroke="black" points="1239.65,-236.8 1138.35,-236.8 1138.35,-200.8 1239.65,-200.8 1239.65,-236.8"/>
<text text-anchor="middle" x="1189" y="-214.6" font-family="Times,serif" font-size="14.00">RouterModule </text>
</g>
<!-- AppRoutingModule&#45;&gt;RouterModule  -->
<g id="edge6" class="edge">
<title>AppRoutingModule&#45;&gt;RouterModule </title>
<path fill="none" stroke="black" stroke-dasharray="5,2" d="M963.43,-236.84C963.43,-244.55 963.43,-251.8 963.43,-251.8 963.43,-251.8 1189,-251.8 1189,-251.8 1189,-251.8 1189,-246.84 1189,-246.84"/>
<polygon fill="black" stroke="black" points="1192.5,-246.84 1189,-236.84 1185.5,-246.84 1192.5,-246.84"/>
</g>
<!-- ChatBoxModule -->
<g id="node4" class="node">
<title>ChatBoxModule</title>
<polygon fill="#8dd3c7" stroke="black" points="821.83,-236.8 818.83,-240.8 797.83,-240.8 794.83,-236.8 712.17,-236.8 712.17,-200.8 821.83,-200.8 821.83,-236.8"/>
<text text-anchor="middle" x="767" y="-214.6" font-family="Times,serif" font-size="14.00">ChatBoxModule</text>
</g>
<!-- ChatBoxModule&#45;&gt;AppModule -->
<g id="edge3" class="edge">
<title>ChatBoxModule&#45;&gt;AppModule</title>
<path fill="none" stroke="black" d="M767,-236.91C767,-256.14 767,-283.8 767,-283.8 767,-283.8 852.15,-283.8 852.15,-283.8"/>
<polygon fill="black" stroke="black" points="852.15,-287.3 862.15,-283.8 852.15,-280.3 852.15,-287.3"/>
</g>
<!-- ...chatComponents  -->
<g id="node15" class="node">
<title>...chatComponents </title>
<polygon fill="#fb8072" stroke="black" points="148.1,-160.8 23.9,-160.8 23.9,-124.8 148.1,-124.8 148.1,-160.8"/>
<text text-anchor="middle" x="86" y="-138.6" font-family="Times,serif" font-size="14.00">...chatComponents </text>
</g>
<!-- ChatBoxModule&#45;&gt;...chatComponents  -->
<g id="edge14" class="edge">
<title>ChatBoxModule&#45;&gt;...chatComponents </title>
<path fill="none" stroke="black" stroke-dasharray="5,2" d="M712.14,-227.8C550.27,-227.8 86,-227.8 86,-227.8 86,-227.8 86,-170.83 86,-170.83"/>
<polygon fill="black" stroke="black" points="89.5,-170.83 86,-160.83 82.5,-170.83 89.5,-170.83"/>
</g>
<!-- RouterModule.forRoot(args) -->
<g id="node6" class="node">
<title>RouterModule.forRoot(args)</title>
<polygon fill="#8dd3c7" stroke="black" points="1441.84,-236.8 1438.84,-240.8 1417.84,-240.8 1414.84,-236.8 1264.16,-236.8 1264.16,-200.8 1441.84,-200.8 1441.84,-236.8"/>
<text text-anchor="middle" x="1353" y="-214.6" font-family="Times,serif" font-size="14.00">RouterModule.forRoot(args)</text>
</g>
<!-- RouterModule.forRoot(args)&#45;&gt;AppRoutingModule -->
<g id="edge5" class="edge">
<title>RouterModule.forRoot(args)&#45;&gt;AppRoutingModule</title>
<path fill="none" stroke="black" d="M1269.94,-200.59C1269.94,-195.25 1269.94,-190.8 1269.94,-190.8 1269.94,-190.8 961.94,-190.8 961.94,-190.8 961.94,-190.8 961.94,-191.78 961.94,-191.78"/>
<polygon fill="black" stroke="black" points="958.44,-190.59 961.94,-200.59 965.44,-190.59 958.44,-190.59"/>
</g>
<!-- ...chatComponents -->
<g id="node8" class="node">
<title>...chatComponents</title>
<polygon fill="#ffffb3" stroke="black" points="292.1,-160.8 171.9,-160.8 171.9,-124.8 292.1,-124.8 292.1,-160.8"/>
<text text-anchor="middle" x="232" y="-138.6" font-family="Times,serif" font-size="14.00">...chatComponents</text>
</g>
<!-- ...chatComponents&#45;&gt;ChatBoxModule -->
<g id="edge7" class="edge">
<title>...chatComponents&#45;&gt;ChatBoxModule</title>
<path fill="none" stroke="black" d="M232,-160.81C232,-183.29 232,-218.8 232,-218.8 232,-218.8 702.26,-218.8 702.26,-218.8"/>
<polygon fill="black" stroke="black" points="702.26,-222.3 712.26,-218.8 702.26,-215.3 702.26,-222.3"/>
</g>
<!-- CommonModule -->
<g id="node9" class="node">
<title>CommonModule</title>
<polygon fill="#8dd3c7" stroke="black" points="1084.67,-160.8 1081.67,-164.8 1060.67,-164.8 1057.67,-160.8 973.33,-160.8 973.33,-124.8 1084.67,-124.8 1084.67,-160.8"/>
<text text-anchor="middle" x="1029" y="-138.6" font-family="Times,serif" font-size="14.00">CommonModule</text>
</g>
<!-- CommonModule&#45;&gt;ChatBoxModule -->
<g id="edge8" class="edge">
<title>CommonModule&#45;&gt;ChatBoxModule</title>
<path fill="none" stroke="black" d="M982.72,-161.01C982.72,-166.35 982.72,-170.8 982.72,-170.8 982.72,-170.8 778.5,-170.8 778.5,-170.8 778.5,-170.8 778.5,-190.65 778.5,-190.65"/>
<polygon fill="black" stroke="black" points="775,-190.65 778.5,-200.65 782,-190.65 775,-190.65"/>
</g>
<!-- BrowserModule -->
<g id="node10" class="node">
<title>BrowserModule</title>
<polygon fill="#8dd3c7" stroke="black" points="955.47,-160.8 952.47,-164.8 931.47,-164.8 928.47,-160.8 848.53,-160.8 848.53,-124.8 955.47,-124.8 955.47,-160.8"/>
<text text-anchor="middle" x="902" y="-138.6" font-family="Times,serif" font-size="14.00">BrowserModule</text>
</g>
<!-- BrowserModule&#45;&gt;ChatBoxModule -->
<g id="edge9" class="edge">
<title>BrowserModule&#45;&gt;ChatBoxModule</title>
<path fill="none" stroke="black" d="M848.35,-142.8C840.58,-142.8 835.14,-142.8 835.14,-142.8 835.14,-142.8 835.14,-218.8 835.14,-218.8 835.14,-218.8 831.68,-218.8 831.68,-218.8"/>
<polygon fill="black" stroke="black" points="831.68,-215.3 821.68,-218.8 831.68,-222.3 831.68,-215.3"/>
</g>
<!-- FormsModule -->
<g id="node11" class="node">
<title>FormsModule</title>
<polygon fill="#8dd3c7" stroke="black" points="830.83,-160.8 827.83,-164.8 806.83,-164.8 803.83,-160.8 735.17,-160.8 735.17,-124.8 830.83,-124.8 830.83,-160.8"/>
<text text-anchor="middle" x="783" y="-138.6" font-family="Times,serif" font-size="14.00">FormsModule</text>
</g>
<!-- FormsModule&#45;&gt;ChatBoxModule -->
<g id="edge10" class="edge">
<title>FormsModule&#45;&gt;ChatBoxModule</title>
<path fill="none" stroke="black" d="M756.92,-160.81C756.92,-160.81 756.92,-190.65 756.92,-190.65"/>
<polygon fill="black" stroke="black" points="753.42,-190.65 756.92,-200.65 760.42,-190.65 753.42,-190.65"/>
</g>
<!-- ChatFeatureRoutingModule -->
<g id="node12" class="node">
<title>ChatFeatureRoutingModule</title>
<polygon fill="#8dd3c7" stroke="black" points="1275.59,-160.8 1272.59,-164.8 1251.59,-164.8 1248.59,-160.8 1102.41,-160.8 1102.41,-124.8 1275.59,-124.8 1275.59,-160.8"/>
<text text-anchor="middle" x="1189" y="-138.6" font-family="Times,serif" font-size="14.00">ChatFeatureRoutingModule</text>
</g>
<!-- ChatFeatureRoutingModule&#45;&gt;ChatBoxModule -->
<g id="edge11" class="edge">
<title>ChatFeatureRoutingModule&#45;&gt;ChatBoxModule</title>
<path fill="none" stroke="black" d="M1120.44,-160.91C1120.44,-170.7 1120.44,-180.8 1120.44,-180.8 1120.44,-180.8 800.08,-180.8 800.08,-180.8 800.08,-180.8 800.08,-190.69 800.08,-190.69"/>
<polygon fill="black" stroke="black" points="796.58,-190.69 800.08,-200.69 803.58,-190.69 796.58,-190.69"/>
</g>
<!-- ChatFeatureRoutingModule&#45;&gt;RouterModule  -->
<g id="edge16" class="edge">
<title>ChatFeatureRoutingModule&#45;&gt;RouterModule </title>
<path fill="none" stroke="black" stroke-dasharray="5,2" d="M1189,-160.81C1189,-160.81 1189,-190.65 1189,-190.65"/>
<polygon fill="black" stroke="black" points="1185.5,-190.65 1189,-200.65 1192.5,-190.65 1185.5,-190.65"/>
</g>
<!-- AgmCoreModule.forRoot(args) -->
<g id="node13" class="node">
<title>AgmCoreModule.forRoot(args)</title>
<polygon fill="#8dd3c7" stroke="black" points="510.45,-160.8 507.45,-164.8 486.45,-164.8 483.45,-160.8 315.55,-160.8 315.55,-124.8 510.45,-124.8 510.45,-160.8"/>
<text text-anchor="middle" x="413" y="-138.6" font-family="Times,serif" font-size="14.00">AgmCoreModule.forRoot(args)</text>
</g>
<!-- AgmCoreModule.forRoot(args)&#45;&gt;ChatBoxModule -->
<g id="edge12" class="edge">
<title>AgmCoreModule.forRoot(args)&#45;&gt;ChatBoxModule</title>
<path fill="none" stroke="black" d="M413,-161.11C413,-180.95 413,-209.8 413,-209.8 413,-209.8 702.08,-209.8 702.08,-209.8"/>
<polygon fill="black" stroke="black" points="702.08,-213.3 712.08,-209.8 702.08,-206.3 702.08,-213.3"/>
</g>
<!-- SocketIoModule.forRoot(args) -->
<g id="node14" class="node">
<title>SocketIoModule.forRoot(args)</title>
<polygon fill="#8dd3c7" stroke="black" points="717.5,-160.8 714.5,-164.8 693.5,-164.8 690.5,-160.8 528.5,-160.8 528.5,-124.8 717.5,-124.8 717.5,-160.8"/>
<text text-anchor="middle" x="623" y="-138.6" font-family="Times,serif" font-size="14.00">SocketIoModule.forRoot(args)</text>
</g>
<!-- SocketIoModule.forRoot(args)&#45;&gt;ChatBoxModule -->
<g id="edge13" class="edge">
<title>SocketIoModule.forRoot(args)&#45;&gt;ChatBoxModule</title>
<path fill="none" stroke="black" d="M717.6,-142.8C723.08,-142.8 726.42,-142.8 726.42,-142.8 726.42,-142.8 726.42,-190.79 726.42,-190.79"/>
<polygon fill="black" stroke="black" points="722.92,-190.79 726.42,-200.79 729.92,-190.79 722.92,-190.79"/>
</g>
<!-- RouterModule.forChild(args) -->
<g id="node16" class="node">
<title>RouterModule.forChild(args)</title>
<polygon fill="#8dd3c7" stroke="black" points="1279.73,-84.8 1276.73,-88.8 1255.73,-88.8 1252.73,-84.8 1098.27,-84.8 1098.27,-48.8 1279.73,-48.8 1279.73,-84.8"/>
<text text-anchor="middle" x="1189" y="-62.6" font-family="Times,serif" font-size="14.00">RouterModule.forChild(args)</text>
</g>
<!-- RouterModule.forChild(args)&#45;&gt;ChatFeatureRoutingModule -->
<g id="edge15" class="edge">
<title>RouterModule.forChild(args)&#45;&gt;ChatFeatureRoutingModule</title>
<path fill="none" stroke="black" d="M1189,-84.81C1189,-84.81 1189,-114.65 1189,-114.65"/>
<polygon fill="black" stroke="black" points="1185.5,-114.65 1189,-124.65 1192.5,-114.65 1185.5,-114.65"/>
</g>
</g>
</svg>
